<svg xmlns="http://www.w3.org/2000/svg" xmlns:xlink="http://www.w3.org/1999/xlink" width="150" height="150" viewBox="0 0 150 150">
  <defs>
    <style>
      .cls-1 {
        fill: #fff;
      }

      .cls-2 {
        clip-path: url(#clip-path);
      }
    </style>
    <clipPath id="clip-path">
      <rect id="Retângulo_49" data-name="Retângulo 49" class="cls-1" width="150" height="150"/>
    </clipPath>
  </defs>
  <g id="layer1_1" data-name="layer1 1" class="cls-2">
    <path id="Caminho_634" data-name="Caminho 634" class="cls-1" d="M38.8.733c3.1,10.743,44.884,20.532,71.7,32.324,10.819,4.758,15.483,4.668,29.489,7.181,1.577.283,11.322,3.907,16.421,17.934,30.233-.86,27.636,21.878,16.521,50.67-30.834-22.095-55.8,20.234-74.543,42.231,13.194-35.369,53.4-68.605,74.634-51.88,12.248-34.929-11.929-33.382-20.861-34.366-8.624-24.158-36.289-16.621-39.408-20.04L46.761,19.425C26.071,10.069,40.562-.332,38.8.733Z" transform="translate(-30.282 -0.561)"/>
    <path id="Caminho_635" data-name="Caminho 635" class="cls-1" d="M2.614,125.174c4.637,10.474,33.077,16.2,67.5,30.339,3.216,1.321,8.36,2.995,10.161,6.14,4.177,7.292,10.185,15.191,8.386,19.958-.269.713,1,2.374,1,2.374,15.681,9.907.529,9.626,2.212,11.356,2.308,2.373,4,3.887.734,5.12,3.072,1.864-.906,4.365-.3,5.276,3.656,5.464.405,8.737-4.581,9.717-11.472,3.408-21.209,4.983-21.867,32.252-1.21-36.542,6.25-29.624,12.935-33.432,3.567-2.032,6.509-5.525,2.957-7.907-.58-.389,3.806-5.1-1.382-3.808-1.547.385,2.921-1.572,3.134-2.752.113-.625-2.151-2.769-.9-3.847,3.3-2.856,6.824-2.443-1.125-7.51-5.083-3.623-.722-6.607-1.677-7.766-.476-.578-.277-1.576-.658-2.279-9.222-17-13.322-12.3-19.9-16.223L8.019,142.61C-2.285,136.943-2.092,131.1,2.614,125.174Z" transform="translate(0.414 -106.787)"/>
    <path id="Caminho_636" data-name="Caminho 636" class="cls-1" d="M93.337,325.785c7.277,2.745,13.544,12.426,12.255,17.268a1.535,1.535,0,0,0,.685,1.656c10.337,7.524.333,7.194.93,9.284.488,1.419,1.546,2.855-.612,3.685,1.877.674,1.14,2.862-.213,2.687.17.4-.411,1.183-.185,1.493,5.01,6.844-4.369,9.716-15.149,10.047-8.747.269-18.781,4.062-23.66,4.631,4.689-2.631,10.47-5.771,16.553-7.25,4.816-1.171,9.033-1.9,11.963-3.1,1.063-.433.742-3.379.521-4.211,1.472-1.874,2.092-2.07,2.092-2.07.369-.346-.656-.262-1.414-1.556,4.084-1.634.174-3.462,1.3-4.17,5.519-3.469-.969-4.679-1.971-9.811-.479-7.29-5.827-9.67-12.231-11.781-5.712-1.883-17.636-6.361-31.393-11.62-6.091-3.256-6.165-6.527-6.258-14.052C50.934,312.267,80.861,321.451,93.337,325.785Z" transform="translate(-39.714 -261.835)"/>
    <path id="Caminho_637" data-name="Caminho 637" class="cls-1" d="M696.032,406.908l2.242,8.011,10.548.068Z" transform="translate(-593.792 -347.137)"/>
  </g>
</svg>
