<?xml version="1.0" encoding="UTF-8" standalone="no"?>
<svg
   xmlns:dc="http://purl.org/dc/elements/1.1/"
   xmlns:cc="http://creativecommons.org/ns#"
   xmlns:rdf="http://www.w3.org/1999/02/22-rdf-syntax-ns#"
   xmlns:svg="http://www.w3.org/2000/svg"
   xmlns="http://www.w3.org/2000/svg"
   xmlns:sodipodi="http://sodipodi.sourceforge.net/DTD/sodipodi-0.dtd"
   xmlns:inkscape="http://www.inkscape.org/namespaces/inkscape"
   width="1024"
   height="1024"
   viewBox="0 0 1024 1024"
   fill="none"
   version="1.1"
   id="svg10"
   sodipodi:docname="layer1.svg">
  <metadata
     id="metadata16">
    <rdf:RDF>
      <cc:Work
         rdf:about="">
        <dc:format>image/svg+xml</dc:format>
        <dc:type
           rdf:resource="http://purl.org/dc/dcmitype/StillImage" />
      </cc:Work>
    </rdf:RDF>
  </metadata>
  <defs
     id="defs14" />
  <sodipodi:namedview
     pagecolor="#ffffff"
     bordercolor="#666666"
     borderopacity="1"
     objecttolerance="10"
     gridtolerance="10"
     guidetolerance="10"
     inkscape:pageopacity="0"
     inkscape:pageshadow="2"
     inkscape:window-width="640"
     inkscape:window-height="480"
     id="namedview12"
     showgrid="false" />
  <path
     d="m 726.67255,123.44182 c 4.81028,16.64462 69.54042,31.81036 111.08296,50.08043 16.7619,7.37152 23.98799,7.23201 45.68812,11.12521 2.44307,0.43832 17.54204,6.05269 25.44063,27.78492 46.83991,-1.33179 42.81631,33.89634 25.59676,78.50414 -47.77207,-34.23155 -86.45031,31.34973 -115.49124,65.42994 20.44208,-54.79857 82.73803,-106.29134 115.63256,-80.37893 18.97624,-54.11562 -18.48217,-51.71921 -32.32012,-53.24399 -13.36118,-37.42813 -56.22278,-25.75104 -61.05519,-31.04795 L 739.01047,152.40152 c -32.05486,-14.49515 -9.60352,-30.6105 -12.33792,-28.9597 z"
     fill="#00003f"
     id="path2"
     style="fill:#003366;fill-opacity:1;stroke-width:0.227579" />
  <path
     d="m 718.17122,151.66212 c 7.1836,16.22708 51.24748,25.10063 104.5743,47.00491 4.98308,2.04684 12.95244,4.63965 15.74302,9.51212 6.47077,11.29726 15.78034,23.53534 12.99318,30.92188 -0.41692,1.10466 1.54618,3.67791 1.54618,3.67791 24.29567,15.34839 0.81951,14.91327 3.42666,17.59415 3.57549,3.67654 6.19607,6.02265 1.13721,7.93204 4.76028,2.88753 -1.40416,6.76343 -0.45971,8.17488 5.66445,8.46594 0.62766,13.5371 -7.09683,15.05414 -17.77439,5.28007 -32.85971,7.72017 -33.87903,49.96821 -1.87503,-56.61489 9.68258,-45.89682 20.04108,-51.79681 5.52653,-3.14765 10.08381,-8.55972 4.58094,-12.25082 -0.89894,-0.60286 5.89726,-7.90109 -2.14107,-5.90045 -2.39686,0.59649 4.52542,-2.43487 4.85518,-4.26324 0.17455,-0.96881 -3.33199,-4.28942 -1.4003,-5.96098 5.11462,-4.42551 10.57243,-3.78441 -1.7437,-11.6359 -7.87562,-5.6137 -1.11833,-10.2356 -2.59828,-12.03234 -0.73736,-0.89553 -0.42945,-2.44147 -1.02002,-3.53021 -14.2881,-26.33798 -20.63983,-19.05703 -30.83425,-25.13545 L 726.54659,178.67578 C 710.58213,169.896 710.88124,160.8388 718.17122,151.66212 Z"
     fill="#00003f"
     id="path4"
     style="fill:#003366;fill-opacity:1;stroke-width:0.227579" />
  <path
     d="m 796.55934,222.25379 c 11.27428,4.25255 20.9844,19.25252 18.98739,26.75422 -0.2938,1.10398 0.23987,1.88436 1.06189,2.5655 16.01612,11.65706 0.51615,11.14547 1.4408,14.38369 0.75557,2.19819 2.39573,4.42278 -0.94878,5.70905 2.90756,1.04482 1.76625,4.43393 -0.3293,4.16379 0.2633,0.62721 -0.63699,1.8327 -0.28584,2.31266 7.76159,10.60406 -6.76912,15.05391 -23.47071,15.56664 -13.55188,0.41625 -29.09805,6.29303 -36.65755,7.17467 7.26433,-4.07571 16.22094,-8.9409 25.64659,-11.23331 7.46095,-1.81449 13.9943,-2.94692 18.53474,-4.79554 1.64699,-0.67069 1.1495,-5.2357 0.80699,-6.5247 2.2808,-2.90323 3.24118,-3.20705 3.24118,-3.20705 0.57237,-0.53686 -1.01637,-0.40646 -2.18999,-2.41143 6.32693,-2.53091 0.26991,-5.36404 2.01499,-6.46075 8.55105,-5.37382 -1.50112,-7.24908 -3.05412,-15.19979 -0.74259,-11.29521 -9.02829,-14.98154 -18.94984,-18.25254 -8.84896,-2.91756 -27.32384,-9.85531 -48.63815,-18.00379 -9.4365,-5.04384 -9.55168,-10.11249 -9.69575,-21.77182 6.79025,8.28683 53.15693,22.516 72.48546,29.2305 z"
     fill="#00003f"
     id="path6"
     style="fill:#003366;fill-opacity:1;stroke-width:0.227579" />
  <path
     d="m 871.88216,215.77893 3.47331,12.41149 16.34178,0.1056 z"
     fill="#00003f"
     id="path8"
     style="fill:#003366;fill-opacity:1;stroke-width:0.227579" />
  <text
     xml:space="preserve"
     style="font-style:italic;font-variant:normal;font-weight:bold;font-stretch:normal;font-size:192px;line-height:1.25;font-family:Ubuntu;-inkscape-font-specification:'Ubuntu Bold Italic';fill:#000000;fill-opacity:1"
     x="69.912704"
     y="372.87671"
     id="text874"><tspan
       sodipodi:role="line"
       id="tspan872"
       x="69.912704"
       y="372.87671">Leblon</tspan></text>
</svg>
