<?xml version="1.0" encoding="UTF-8" standalone="no"?>
<svg
   xmlns:dc="http://purl.org/dc/elements/1.1/"
   xmlns:cc="http://creativecommons.org/ns#"
   xmlns:rdf="http://www.w3.org/1999/02/22-rdf-syntax-ns#"
   xmlns:svg="http://www.w3.org/2000/svg"
   xmlns="http://www.w3.org/2000/svg"
   xmlns:sodipodi="http://sodipodi.sourceforge.net/DTD/sodipodi-0.dtd"
   xmlns:inkscape="http://www.inkscape.org/namespaces/inkscape"
   width="1024"
   height="1024"
   viewBox="0 0 270.9333 270.93334"
   version="1.1"
   id="svg8"
   inkscape:version="1.0.1 (3bc2e813f5, 2020-09-07)"
   sodipodi:docname="leblon-logo.svg">
  <defs
     id="defs2" />
  <sodipodi:namedview
     id="base"
     pagecolor="#ffffff"
     bordercolor="#666666"
     borderopacity="1.0"
     inkscape:pageopacity="0.0"
     inkscape:pageshadow="2"
     inkscape:zoom="0.66047952"
     inkscape:cx="960"
     inkscape:cy="581.15908"
     inkscape:document-units="mm"
     inkscape:current-layer="layer1"
     inkscape:document-rotation="0"
     showgrid="false"
     units="px"
     inkscape:window-width="2498"
     inkscape:window-height="1057"
     inkscape:window-x="-8"
     inkscape:window-y="-8"
     inkscape:window-maximized="1"
     inkscape:pagecheckerboard="false"
     showborder="true"
     inkscape:showpageshadow="true" />
  <metadata
     id="metadata5">
    <rdf:RDF>
      <cc:Work
         rdf:about="">
        <dc:format>image/svg+xml</dc:format>
        <dc:type
           rdf:resource="http://purl.org/dc/dcmitype/StillImage" />
        <dc:title></dc:title>
      </cc:Work>
    </rdf:RDF>
  </metadata>
  <g
     inkscape:label="Layer 1"
     inkscape:groupmode="layer"
     id="layer1">
    <g
       id="g887"
       style="fill:#00003f;fill-opacity:1;stroke:none"
       transform="matrix(2.0676686,0,0,2.4524511,-36.78862,-92.387077)">
      <path
         style="fill:#00003f;fill-opacity:1;stroke:none;stroke-width:0.365;stroke-linecap:butt;stroke-linejoin:miter;stroke-miterlimit:4;stroke-dasharray:none;stroke-dashoffset:0;stroke-opacity:1"
         d="m 25.210307,37.797755 c 2.704701,7.890473 39.10084,15.079926 62.459242,23.740888 9.424708,3.494547 13.487771,3.42846 25.689201,5.273972 1.37366,0.207772 9.86346,2.869292 14.30473,13.171676 26.33627,-0.631424 24.07478,16.068714 14.39235,37.215309 C 115.19476,100.97197 93.447039,132.06113 77.118045,148.21677 88.612133,122.23941 123.63955,97.829042 142.13533,110.11294 152.80456,84.459089 131.74328,85.595161 123.96248,84.872339 116.44986,67.129257 92.349891,72.664845 89.632635,70.153812 L 32.14757,51.526246 C 14.123965,44.654756 26.747785,37.015184 25.210307,37.797755 Z"
         id="path857"
         sodipodi:nodetypes="csscccccccc" />
      <path
         style="fill:#00003f;fill-opacity:1;stroke:none;stroke-width:0.365;stroke-linecap:butt;stroke-linejoin:miter;stroke-miterlimit:4;stroke-dasharray:none;stroke-dashoffset:0;stroke-opacity:1"
         d="m 20.430232,51.175729 c 4.039164,7.692523 28.81523,11.899145 58.799508,22.282972 2.801891,0.97032 7.282828,2.199481 8.851975,4.509277 3.638264,5.355552 8.872809,11.157087 7.305719,14.658655 -0.234397,0.523745 0.869381,1.743569 0.869381,1.743569 13.660775,7.275998 0.460745,7.069748 1.926675,8.340608 2.0105,1.74295 3.48395,2.85505 0.639492,3.76025 2.676598,1.36889 -0.789598,3.2062 -0.258524,3.87539 3.184922,4.01324 0.35289,6.41733 -3.990404,7.13641 -9.994103,2.50309 -18.476109,3.6598 -19.049359,23.68778 -1.054262,-26.83867 5.444302,-21.75771 11.268668,-24.55458 3.107462,-1.49222 5.669902,-4.05776 2.575755,-5.80756 -0.505477,-0.28586 3.31588,-3.74562 -1.203862,-2.79721 -1.34773,0.2828 2.544565,-1.15428 2.729908,-2.02102 0.0982,-0.45921 -1.87342,-2.03336 -0.787302,-2.82575 2.875721,-2.09803 5.944554,-1.7941 -0.98052,-5.516065 -4.428174,-2.661281 -0.62883,-4.852344 -1.460862,-5.704092 -0.414616,-0.42444 -0.241532,-1.15736 -0.573602,-1.673446 C 79.059066,77.785167 75.487693,81.236758 69.755572,78.355232 L 25.139491,63.981776 c -8.976418,-4.162112 -8.808243,-8.4558 -4.709259,-12.806047 z"
         id="path862"
         sodipodi:nodetypes="cssscscsccssssscssccc" />
      <path
         style="fill:#00003f;fill-opacity:1;stroke:none;stroke-width:0.365;stroke-linecap:butt;stroke-linejoin:miter;stroke-miterlimit:4;stroke-dasharray:none;stroke-dashoffset:0;stroke-opacity:1"
         d="m 64.505932,84.6401 c 6.339204,2.016005 11.798935,9.12686 10.676168,12.682994 -0.165241,0.523368 0.134783,0.893316 0.597067,1.216231 9.005484,5.526095 0.290196,5.283585 0.810087,6.818715 0.424824,1.04204 1.34709,2.09657 -0.53344,2.70636 1.634835,0.49535 0.993073,2.10195 -0.185223,1.97385 0.14813,0.29735 -0.358198,0.8688 -0.160633,1.09637 4.36415,5.0269 -3.8061,7.13634 -13.197104,7.37946 -7.61986,0.19727 -16.361034,2.98323 -20.611576,3.4012 4.084562,-1.93212 9.120617,-4.23848 14.420432,-5.32518 4.195132,-0.86019 7.868595,-1.39711 10.42169,-2.27346 0.926061,-0.31787 0.646315,-2.48199 0.453749,-3.09306 1.282389,-1.37626 1.822336,-1.52026 1.822336,-1.52026 0.321821,-0.25456 -0.571377,-0.19271 -1.231378,-1.1432 3.557483,-1.19973 0.151776,-2.54287 1.133046,-3.06277 C 73.72919,102.94993 68.07703,102.06088 67.20388,98.291871 66.786319,92.937272 62.127426,91.189759 56.548909,89.639124 51.573256,88.256066 41.185332,84.96714 29.200825,81.10433 23.894913,78.713288 23.830151,76.310394 23.749136,70.783217 27.567137,74.711649 53.637993,81.457078 64.505932,84.6401 Z"
         id="path879"
         sodipodi:nodetypes="csccccsscsscccscsccc" />
      <path
         style="fill:#00003f;fill-opacity:1;stroke:none;stroke-width:0.365;stroke-linecap:butt;stroke-linejoin:miter;stroke-miterlimit:4;stroke-dasharray:none;stroke-dashoffset:0;stroke-opacity:1"
         d="m 106.85812,81.570705 1.9529,5.883708 9.18859,0.05007 z"
         id="path881" />
    </g>
  </g>
</svg>
