<svg xmlns="http://www.w3.org/2000/svg" xmlns:xlink="http://www.w3.org/1999/xlink" width="90" height="90" viewBox="0 0 90 90">
  <defs>
    <style>
      .cls-1 {
        fill: #036;
      }

      .cls-2 {
        clip-path: url(#clip-path);
      }
    </style>
    <clipPath id="clip-path">
      <rect id="Retângulo_50" data-name="Retângulo 50" class="cls-1" width="90" height="90"/>
    </clipPath>
  </defs>
  <g id="loginLogo" class="cls-2">
    <path id="Caminho_638" data-name="Caminho 638" class="cls-1" d="M37.487.7C39.359,7.18,64.549,13.082,80.715,20.192c6.523,2.869,9.335,2.814,17.78,4.329.951.171,6.827,2.355,9.9,10.813,18.228-.518,16.662,13.191,9.961,30.55-18.591-13.321-33.643,12.2-44.944,25.463,7.955-21.325,32.2-41.364,45-31.28,7.385-21.059-7.192-20.127-12.578-20.72-5.2-14.565-21.879-10.021-23.76-12.083L42.288,11.973C29.814,6.332,38.551.061,37.487.7Z" transform="translate(-32.353 -0.599)"/>
    <path id="Caminho_639" data-name="Caminho 639" class="cls-1" d="M1.383,125.174c2.8,6.315,19.943,9.768,40.7,18.292,1.939.8,5.041,1.806,6.127,3.7,2.518,4.4,6.141,9.159,5.056,12.033-.162.43.6,1.431.6,1.431,9.455,5.973.319,5.8,1.333,6.847,1.391,1.431,2.411,2.344.443,3.087,1.852,1.124-.546,2.632-.179,3.181,2.2,3.295.244,5.268-2.762,5.858-6.917,2.055-12.788,3-13.184,19.445-.73-22.032,3.768-17.861,7.8-20.157,2.151-1.225,3.924-3.331,1.783-4.768-.35-.235,2.295-3.075-.833-2.3-.933.232,1.761-.948,1.889-1.659.068-.377-1.3-1.669-.545-2.32,1.99-1.722,4.114-1.473-.679-4.528-3.065-2.185-.435-3.983-1.011-4.682-.287-.348-.167-.95-.4-1.374-5.56-10.25-8.032-7.416-12-9.782l-30.879-11.8C-1.57,132.27-1.454,128.745,1.383,125.174Z" transform="translate(0.443 -114.088)"/>
    <path id="Caminho_640" data-name="Caminho 640" class="cls-1" d="M74.76,318.293c4.387,1.655,8.166,7.492,7.389,10.412a.925.925,0,0,0,.413,1c6.233,4.536.2,4.337.561,5.6.294.855.932,1.721-.369,2.222,1.132.407.687,1.725-.128,1.62.1.244-.248.713-.111.9,3.02,4.127-2.634,5.858-9.134,6.058-5.274.162-11.324,2.449-14.266,2.792a40.8,40.8,0,0,1,9.981-4.372,61.485,61.485,0,0,0,7.213-1.866c.641-.261.447-2.038.314-2.539.888-1.13,1.261-1.248,1.261-1.248.223-.209-.4-.158-.852-.938,2.462-.985.105-2.087.784-2.514,3.328-2.091-.584-2.821-1.189-5.915-.289-4.4-3.513-5.83-7.374-7.1-3.444-1.135-10.633-3.835-18.928-7.006-3.672-1.963-3.717-3.935-3.773-8.473C49.194,310.143,67.238,315.68,74.76,318.293Z" transform="translate(-42.429 -279.736)"/>
    <path id="Caminho_641" data-name="Caminho 641" class="cls-1" d="M696.032,406.908l1.352,4.83,6.36.041Z" transform="translate(-634.389 -370.871)"/>
  </g>
</svg>
