<svg width="300" height="300" viewBox="0 0 300 300" fill="none" xmlns="http://www.w3.org/2000/svg">
<path d="M17.1259 0.1507C23.3183 21.5777 106.647 41.1011 160.126 64.6205C181.704 74.1101 191.006 73.9307 218.941 78.9423C222.086 79.5065 241.524 86.734 251.692 114.711C311.989 112.996 306.811 158.346 284.643 215.771C223.145 171.704 173.354 256.128 135.968 300C162.284 229.457 242.479 163.169 284.825 196.527C309.252 126.862 261.033 129.947 243.218 127.984C226.018 79.8021 170.842 94.8343 164.62 88.0155L33.0087 37.4312C-8.25626 18.7713 20.6459 -1.97442 17.1259 0.1507Z" fill="#00003F"/>
<path d="M6.18187 36.4794C15.4295 57.3689 72.1542 68.7922 140.803 96.9901C147.218 99.6251 157.477 102.963 161.07 109.235C169.399 123.779 181.384 139.533 177.796 149.042C177.259 150.464 179.786 153.776 179.786 153.776C211.063 173.535 180.841 172.975 184.198 176.426C188.801 181.159 192.174 184.179 185.662 186.637C191.79 190.354 183.854 195.344 185.07 197.161C192.362 208.059 185.878 214.588 175.934 216.54C153.052 223.338 133.633 226.479 132.32 280.866C129.907 207.984 144.785 221.781 158.12 214.186C165.234 210.134 171.101 203.167 164.017 198.416C162.86 197.639 171.609 188.244 161.261 190.82C158.175 191.588 167.087 187.685 167.511 185.331C167.736 184.084 163.222 179.81 165.708 177.658C172.292 171.961 179.318 172.786 163.464 162.679C153.325 155.452 162.024 149.502 160.119 147.189C159.17 146.036 159.566 144.046 158.806 142.645C140.412 108.739 132.236 118.112 119.112 110.287L16.9637 71.2549C-3.58776 59.9525 -3.20273 48.2927 6.18187 36.4794V36.4794Z" fill="#00003F"/>
<path d="M107.093 127.354C121.607 132.828 134.107 152.138 131.536 161.795C131.158 163.216 131.845 164.221 132.903 165.098C153.521 180.104 133.567 179.446 134.758 183.615C135.73 186.444 137.842 189.308 133.536 190.964C137.279 192.309 135.81 196.672 133.112 196.324C133.451 197.131 132.292 198.683 132.745 199.301C142.736 212.952 124.031 218.68 102.53 219.341C85.0842 219.876 65.0714 227.442 55.3398 228.577C64.6913 223.33 76.2214 217.067 88.3553 214.116C97.96 211.78 106.37 210.322 112.216 207.942C114.336 207.079 113.695 201.202 113.255 199.543C116.191 195.806 117.427 195.414 117.427 195.414C118.164 194.723 116.119 194.891 114.608 192.31C122.752 189.052 114.955 185.405 117.202 183.993C128.21 177.075 115.269 174.661 113.27 164.426C112.314 149.885 101.647 145.14 88.8754 140.929C77.4837 137.173 53.7006 128.242 26.2621 117.752C14.1143 111.259 13.966 104.734 13.7805 89.7246C22.5218 100.393 82.2109 118.71 107.093 127.354Z" fill="#00003F"/>
<path d="M204.058 119.019L208.529 134.996L229.567 135.132L204.058 119.019Z" fill="#00003F"/>
</svg>
