<svg width="150" height="150" viewBox="0 0 150 150" fill="none" xmlns="http://www.w3.org/2000/svg">
<path d="M8.56296 0.0753498C11.6592 10.7889 53.3236 20.5506 80.063 32.3102C90.8519 37.0551 95.5031 36.9653 109.471 39.4711C111.043 39.7532 120.762 43.367 125.846 57.3554C155.994 56.498 153.406 79.1731 142.322 107.886C111.572 85.852 86.6768 128.064 67.9842 150C81.142 114.728 121.24 81.5846 142.413 98.2634C154.626 63.4311 130.516 64.9737 121.609 63.9922C113.009 39.9011 85.4208 47.4172 82.3103 44.0077L16.5044 18.7156C-4.1281 9.38564 10.323 -0.987209 8.56296 0.0753498Z" fill="#00003F"/>
<path d="M3.09094 18.2397C7.71476 28.6844 36.0771 34.3961 70.4015 48.495C73.609 49.8125 78.7385 51.4815 80.5348 54.6176C84.6997 61.8893 90.6919 69.7665 88.898 74.5209C88.6297 75.232 89.8932 76.8882 89.8932 76.8882C105.531 86.7674 90.4207 86.4874 92.0988 88.2129C94.4003 90.5795 96.087 92.0895 92.8308 93.3185C95.8949 95.1772 91.927 97.6719 92.5349 98.5805C96.1808 104.03 92.9389 107.294 87.9669 108.27C76.5262 111.669 66.8164 113.239 66.1602 140.433C64.9533 103.992 72.3925 110.891 79.06 107.093C82.6172 105.067 85.5506 101.584 82.0086 99.2078C81.4299 98.8197 85.8044 94.1221 80.6304 95.4098C79.0876 95.7938 83.5433 93.8426 83.7555 92.6657C83.8679 92.0422 81.6109 89.9049 82.8542 88.829C86.1462 85.9803 89.6592 86.393 81.7318 81.3394C76.6626 77.726 81.0119 74.751 80.0595 73.5945C79.5848 73.0182 79.783 72.0231 79.4028 71.3223C70.2062 54.3694 66.1178 59.0559 59.556 55.1435L8.48185 35.6275C-1.79388 29.9762 -1.60136 24.1464 3.09094 18.2397V18.2397Z" fill="#00003F"/>
<path d="M53.5465 63.6769C60.8033 66.4142 67.0533 76.0692 65.768 80.8976C65.5789 81.6082 65.9223 82.1105 66.4515 82.549C76.7605 90.0522 66.7837 89.7229 67.3789 91.8073C67.8652 93.2221 68.9209 94.654 66.7682 95.4819C68.6397 96.1545 67.905 98.3359 66.5562 98.162C66.7257 98.5657 66.1461 99.3416 66.3723 99.6506C71.3681 106.476 62.0153 109.34 51.2649 109.67C42.5421 109.938 32.5357 113.721 27.6699 114.288C32.3457 111.665 38.1107 108.533 44.1776 107.058C48.98 105.89 53.1852 105.161 56.1078 103.971C57.1679 103.539 56.8477 100.601 56.6273 99.7714C58.0953 97.9027 58.7134 97.7072 58.7134 97.7072C59.0818 97.3616 58.0593 97.4456 57.3038 96.155C61.3762 94.526 57.4775 92.7023 58.6008 91.9964C64.1048 88.5376 57.6345 87.3305 56.635 82.213C56.157 74.9426 50.8237 72.5699 44.4377 70.4645C38.7419 68.5866 26.8503 64.1209 13.1311 58.8761C7.05714 55.6296 6.983 52.367 6.89026 44.8623C11.2609 50.1962 41.1055 59.355 53.5465 63.6769Z" fill="#00003F"/>
<path d="M102.029 59.5093L104.265 67.4981L114.783 67.5661L102.029 59.5093Z" fill="#00003F"/>
</svg>
