<?xml version="1.0" encoding="UTF-8" standalone="no"?>
<svg
   xmlns:dc="http://purl.org/dc/elements/1.1/"
   xmlns:cc="http://creativecommons.org/ns#"
   xmlns:rdf="http://www.w3.org/1999/02/22-rdf-syntax-ns#"
   xmlns:svg="http://www.w3.org/2000/svg"
   xmlns="http://www.w3.org/2000/svg"
   xmlns:sodipodi="http://sodipodi.sourceforge.net/DTD/sodipodi-0.dtd"
   xmlns:inkscape="http://www.inkscape.org/namespaces/inkscape"
   width="1024"
   height="1024"
   viewBox="0 0 1024 1024"
   fill="none"
   version="1.1"
   id="svg10"
   sodipodi:docname="MainLogo.svg"
   inkscape:version="1.0.1 (3bc2e813f5, 2020-09-07)">
  <metadata
     id="metadata16">
    <rdf:RDF>
      <cc:Work
         rdf:about="">
        <dc:format>image/svg+xml</dc:format>
        <dc:type
           rdf:resource="http://purl.org/dc/dcmitype/StillImage" />
        <dc:title></dc:title>
      </cc:Work>
    </rdf:RDF>
  </metadata>
  <defs
     id="defs14" />
  <sodipodi:namedview
     pagecolor="#ffffff"
     bordercolor="#666666"
     borderopacity="1"
     objecttolerance="10"
     gridtolerance="10"
     guidetolerance="10"
     inkscape:pageopacity="0"
     inkscape:pageshadow="2"
     inkscape:window-width="2560"
     inkscape:window-height="1017"
     id="namedview12"
     showgrid="false"
     inkscape:document-rotation="0"
     showguides="true"
     inkscape:guide-bbox="true"
     inkscape:zoom="0.5"
     inkscape:cx="-239.07392"
     inkscape:cy="385.42468"
     inkscape:window-x="-8"
     inkscape:window-y="-8"
     inkscape:window-maximized="1"
     inkscape:current-layer="svg10" />
  <g
     id="g971">
    <path
       d="m 475.39677,52.41523 c 5.96084,20.625791 86.17358,39.418984 137.65256,62.05903 20.77114,9.13468 29.7256,8.96179 56.61613,13.7862 3.02741,0.54316 21.73786,7.50042 31.5257,34.43072 58.04337,-1.65035 53.05742,42.00389 31.71917,97.28131 -59.19854,-42.41929 -107.1281,38.84816 -143.11525,81.07993 25.33157,-67.90569 102.5279,-131.71485 143.29038,-99.60453 23.51509,-67.05938 -22.90288,-64.08978 -40.05068,-65.97926 -16.55701,-46.38045 -69.67054,-31.91036 -75.65879,-38.47421 L 490.68576,88.301727 C 450.96381,70.339518 478.78521,50.369577 475.39677,52.41523 Z"
       fill="#00003f"
       id="path2"
       style="fill:#003366;fill-opacity:1;stroke-width:0.282014" />
    <path
       d="m 464.86204,87.385446 c 8.90182,20.108394 63.5052,31.104394 129.58711,58.247884 6.17497,2.53642 16.05049,5.74941 19.50856,11.7873 8.01847,13.99941 19.55477,29.16468 16.10097,38.31799 -0.51664,1.36888 1.91599,4.55762 1.91599,4.55762 30.10688,19.01953 1.01554,18.48034 4.24628,21.80243 4.43072,4.55592 7.67809,7.46319 1.40922,9.8293 5.89888,3.57818 -1.74002,8.38114 -0.56967,10.1302 7.01932,10.49087 0.77779,16.775 -8.7943,18.65489 -22.02579,6.54299 -40.71933,9.56674 -41.98247,61.91997 -2.3235,-70.15644 11.99855,-56.87476 24.83467,-64.18594 6.84839,-3.90053 12.49571,-10.6071 5.67664,-15.18107 -1.11395,-0.74704 7.30781,-9.79092 -2.6532,-7.31176 -2.97015,0.73916 5.60786,-3.01726 6.01648,-5.28295 0.21631,-1.20053 -4.12895,-5.3154 -1.73523,-7.38676 6.33798,-5.48404 13.10121,-4.68961 -2.16077,-14.41907 -9.75935,-6.95642 -1.38581,-12.6838 -3.21976,-14.91031 -0.91372,-1.10973 -0.53216,-3.02543 -1.26398,-4.37458 -17.70564,-32.63769 -25.57662,-23.61525 -38.2094,-31.14754 l -98.3285,-37.57261 C 455.45773,109.98066 455.82837,98.75708 464.86204,87.385446 Z"
       fill="#00003f"
       id="path4"
       style="fill:#003366;fill-opacity:1;stroke-width:0.282014" />
    <path
       d="m 561.99958,174.86174 c 13.97094,5.26971 26.00359,23.85748 23.52893,33.15347 -0.36407,1.36805 0.29724,2.33509 1.31587,3.17915 19.84698,14.44526 0.63962,13.81131 1.78542,17.82408 0.93629,2.72397 2.96876,5.48064 -1.17572,7.07458 3.60302,1.29472 2.18872,5.49445 -0.40805,5.15971 0.32627,0.77723 -0.78935,2.27106 -0.35421,2.86582 9.61805,13.14041 -8.38822,18.65461 -29.08461,19.28998 -16.79332,0.5158 -36.05792,7.79824 -45.42556,8.89077 9.00185,-5.05059 20.10079,-11.07947 31.78092,-13.92019 9.24553,-2.24849 17.34156,-3.65179 22.96801,-5.94255 2.04092,-0.83113 1.42446,-6.48803 1.00001,-8.08534 2.82634,-3.59764 4.01644,-3.97413 4.01644,-3.97413 0.70926,-0.66528 -1.25948,-0.50368 -2.7138,-2.98822 7.84023,-3.13627 0.33446,-6.64705 2.49694,-8.00607 10.59635,-6.65917 -1.86017,-8.98296 -3.78464,-18.83538 -0.9202,-13.99689 -11.18772,-18.56494 -23.48238,-22.61831 -10.96553,-3.61542 -33.85935,-12.21258 -60.27177,-22.31008 -11.69358,-6.25025 -11.83631,-12.53126 -12.01483,-26.97935 8.41437,10.26893 65.87136,27.90155 89.82303,36.22206 z"
       fill="#00003f"
       id="path6"
       style="fill:#003366;fill-opacity:1;stroke-width:0.282014" />
    <path
       d="m 655.33863,166.83818 4.3041,15.38014 20.25051,0.13087 z"
       fill="#00003f"
       id="path8"
       style="fill:#003366;fill-opacity:1;stroke-width:0.282014" />
    <g
       aria-label="Leblon"
       id="text874"
       style="font-style:italic;font-variant:normal;font-weight:bold;font-stretch:normal;font-size:192px;line-height:1.25;font-family:Ubuntu;-inkscape-font-specification:'Ubuntu Bold Italic';fill:#003360;fill-opacity:1"
       transform="matrix(0.70644518,0,0,0.70644518,32.885745,15.344159)">
      <path
         d="m 206.87391,311.24594 -6.144,25.344 h -88.704 l 37.872,-148.992 h 29.452 l -31.42,123.648 z"
         style="font-style:italic;font-variant:normal;font-weight:bold;font-stretch:normal;font-family:Ubuntu;-inkscape-font-specification:'Ubuntu Bold Italic';fill:#003360;fill-opacity:1"
         id="path942"
         sodipodi:nodetypes="ccccccc" />
      <path
         d="m 221.27366,297.03794 q 0,-12.288 4.224,-23.808 4.416,-11.52 12.288,-20.352 7.872,-9.024 19.008,-14.4 11.328,-5.568 24.96,-5.568 6.72,0 12.48,1.92 5.76,1.92 9.984,5.568 4.416,3.648 6.72,9.024 2.496,5.184 2.496,11.904 0,10.752 -4.8,18.24 -4.8,7.488 -13.44,12.288 -8.448,4.608 -20.16,6.72 -11.712,2.112 -25.536,2.112 1.344,8.064 5.76,11.52 4.608,3.264 14.4,3.264 6.144,0 12.48,-0.96 6.336,-1.152 11.904,-3.264 l 2.112,22.464 q -5.376,2.112 -13.824,3.84 -8.256,1.728 -18.048,1.728 -11.904,0 -20.16,-3.264 -8.064,-3.456 -13.248,-9.216 -4.992,-5.76 -7.296,-13.44 -2.304,-7.68 -2.304,-16.32 z m 55.872,-41.472 q -9.792,0 -17.28,7.104 -7.296,6.912 -9.6,18.432 11.904,-0.384 19.2,-1.92 7.296,-1.728 11.328,-4.032 4.032,-2.304 5.376,-4.992 1.344,-2.688 1.344,-5.376 0,-9.216 -10.368,-9.216 z"
         style="font-style:italic;font-variant:normal;font-weight:bold;font-stretch:normal;font-family:Ubuntu;-inkscape-font-specification:'Ubuntu Bold Italic';fill:#003360;fill-opacity:1"
         id="path944" />
      <path
         d="m 384.28143,233.48594 c 6.144,0 11.456,1.088 15.936,3.264 4.48,2.176 8.192,5.12 11.136,8.832 2.944,3.712 5.12,8.064 6.528,13.056 1.408,4.992 2.112,10.368 2.112,16.128 0,8.832 -1.664,17.216 -4.992,25.152 -3.2,7.808 -7.616,14.656 -13.248,20.544 -5.632,5.76 -12.288,10.368 -19.968,13.824 -7.68,3.328 -16,4.992 -24.96,4.992 -1.152,0 -3.2,-0.064 -6.144,-0.192 -2.816,0 -6.08,-0.256 -9.792,-0.768 -3.712,-0.512 -7.68,-1.28 -11.904,-2.304 -4.096,-1.024 -8,-2.432 -11.712,-4.224 l 33.216,-144.192 h 29.76 l -11.904,49.536 c 2.56,-1.152 5.12,-2.048 7.68,-2.688 2.56,-0.64 5.312,-0.96 8.256,-0.96 z m -24.96,82.176 c 4.48,0 8.704,-1.088 12.672,-3.264 3.968,-2.176 7.36,-5.056 10.176,-8.64 2.944,-3.712 5.248,-7.872 6.912,-12.48 1.664,-4.608 2.496,-9.408 2.496,-14.4 0,-6.144 -1.024,-10.944 -3.072,-14.4 -2.048,-3.456 -5.824,-5.184 -11.328,-5.184 -1.792,0 -4.16,0.32 -7.104,0.96 -2.816,0.64 -5.376,1.984 -7.68,4.032 l -12.672,52.608 c 0.768,0.128 1.408,0.256 1.92,0.384 l 1.92,0.384 h 2.304 z"
         style="font-style:italic;font-variant:normal;font-weight:bold;font-stretch:normal;font-family:Ubuntu;-inkscape-font-specification:'Ubuntu Bold Italic';fill:#003360;fill-opacity:1"
         id="path946"
         sodipodi:nodetypes="ssssscccscscccccsssscssssccccccs" />
      <path
         d="m 469.52921,338.50994 c -9.088,0 -16.256,-1.152 -21.504,-3.456 -5.12,-2.432 -8.832,-5.696 -11.136,-9.792 -2.176,-4.096 -3.264,-8.768 -3.264,-14.016 0.128,-5.376 0.896,-11.072 2.304,-17.088 l 24.384,-106.56 h 29.76 l -26.688,110.592 c -0.512,2.304 -0.832,4.416 -0.96,6.336 0,1.92 0.384,3.648 1.152,5.184 0.768,1.408 2.048,2.56 3.84,3.456 1.92,0.896 4.544,1.472 7.872,1.728 z"
         style="font-style:italic;font-variant:normal;font-weight:bold;font-stretch:normal;font-family:Ubuntu;-inkscape-font-specification:'Ubuntu Bold Italic';fill:#003360;fill-opacity:1"
         id="path948"
         sodipodi:nodetypes="ccccccccccccc" />
      <path
         d="m 533.84894,339.27794 q -10.176,0 -17.664,-3.072 -7.488,-3.072 -12.48,-8.64 -4.8,-5.568 -7.296,-13.056 -2.496,-7.68 -2.496,-16.896 0,-11.52 3.648,-23.04 3.84,-11.52 11.136,-20.736 7.296,-9.216 17.856,-14.976 10.56,-5.952 24.192,-5.952 9.984,0 17.472,3.072 7.68,3.072 12.48,8.64 4.992,5.568 7.488,13.248 2.496,7.488 2.496,16.704 0,11.52 -3.648,23.04 -3.648,11.52 -10.752,20.736 -7.104,9.216 -17.856,15.168 -10.56,5.76 -24.576,5.76 z m 14.208,-82.176 q -6.336,0 -11.136,3.648 -4.8,3.648 -8.064,9.216 -3.264,5.568 -4.992,12.288 -1.536,6.528 -1.536,12.48 0,9.792 3.072,15.168 3.072,5.184 11.136,5.184 6.336,0 11.136,-3.648 4.8,-3.648 8.064,-9.216 3.264,-5.568 4.8,-12.096 1.728,-6.72 1.728,-12.672 0,-9.792 -3.072,-14.976 -3.072,-5.376 -11.136,-5.376 z"
         style="font-style:italic;font-variant:normal;font-weight:bold;font-stretch:normal;font-family:Ubuntu;-inkscape-font-specification:'Ubuntu Bold Italic';fill:#003360;fill-opacity:1"
         id="path950" />
      <path
         d="m 621.59283,240.20594 q 3.264,-0.96 7.104,-2.112 4.032,-1.344 8.832,-2.304 4.992,-1.152 10.944,-1.728 6.144,-0.768 13.824,-0.768 22.656,0 31.104,13.056 8.448,13.056 2.88,35.712 l -13.056,54.528 h -28.608 l 12.672,-53.376 q 1.152,-4.992 1.728,-9.6 0.768,-4.8 0,-8.256 -0.768,-3.648 -3.648,-5.76 -2.688,-2.304 -8.448,-2.304 -5.568,0 -11.328,1.152 l -18.624,78.144 h -28.608 z"
         style="font-style:italic;font-variant:normal;font-weight:bold;font-stretch:normal;font-family:Ubuntu;-inkscape-font-specification:'Ubuntu Bold Italic';fill:#003360;fill-opacity:1"
         id="path952" />
    </g>
    <path
       style="fill:#003360;fill-opacity:1;stroke:#000000;stroke-width:0.706445px;stroke-linecap:butt;stroke-linejoin:miter;stroke-opacity:1"
       d="m 209.39149,204.08388 h 0.42553"
       id="path12" />
    <circle
       id="path18"
       style="fill:#003360;fill-opacity:1;stroke:#000000;stroke-width:0.706445"
       cx="119.15115"
       cy="144.06497"
       r="0.062379081" />
    <circle
       id="path20"
       style="fill:#003360;fill-opacity:1;stroke:#000000;stroke-width:0.706445"
       cx="140.63103"
       cy="143.94009"
       r="0.062379081" />
  </g>
</svg>
